HIERARCHY
ROOT Hips
{
	OFFSET 0.000000 0.000000 0.000000 
	CHANNELS 6 Xposition Yposition Zposition Zrotation Yrotation Xrotation
	JOINT LeftUpLeg
	{
		OFFSET 1.363060 -1.794630 0.839290 
		CHANNELS 3 Zrotation Yrotation Xrotation
		JOINT LeftLeg
		{
			OFFSET 2.448110 -6.726130 0.000000 
			CHANNELS 3 Zrotation Yrotation Xrotation
			JOINT LeftFoot
			{
				OFFSET 2.562200 -7.039590 0.000000 
				CHANNELS 3 Zrotation Yrotation Xrotation
				JOINT LeftToeBase
				{
					OFFSET 0.157640 -0.433110 2.322550 
					CHANNELS 3 Zrotation Yrotation Xrotation
					End Site
					{
						OFFSET 0.000000 0.000000 0.000000 
					}
				}
			}
		}
	}
	JOINT RightUpLeg
	{
		OFFSET -1.305520 -1.794630 0.839290 
		CHANNELS 3 Zrotation Yrotation Xrotation
		JOINT RightLeg
		{
			OFFSET -2.542530 -6.985550 0.000000 
			CHANNELS 3 Zrotation Yrotation Xrotation
			JOINT RightFoot
			{
				OFFSET -2.568260 -7.056230 0.000000 
				CHANNELS 3 Zrotation Yrotation Xrotation
				JOINT RightToeBase
				{
					OFFSET -0.164730 -0.452590 2.363150 
					CHANNELS 3 Zrotation Yrotation Xrotation
					End Site
					{
						OFFSET 0.000000 0.000000 0.000000 
					}
				}
			}
		}
	}
	JOINT Spine
	{
		OFFSET 0.028270 2.035590 -0.193380 
		CHANNELS 3 Zrotation Yrotation Xrotation
		JOINT Spine1
		{
			OFFSET 0.056720 2.048850 -0.042750 
			CHANNELS 3 Zrotation Yrotation Xrotation
			JOINT Neck1
			{
				OFFSET -0.054170 1.746240 0.172020 
				CHANNELS 3 Zrotation Yrotation Xrotation
				JOINT Head
				{
					OFFSET 0.104070 1.761360 -0.123970 
					CHANNELS 3 Zrotation Yrotation Xrotation
					End Site
					{
						OFFSET 0.000000 0.000000 0.000000 
					}
				}
			}
			JOINT LeftArm
			{
				OFFSET 3.362410 1.200890 -0.311210 
				CHANNELS 3 Zrotation Yrotation Xrotation
				JOINT LeftForeArm
				{
					OFFSET 4.983000 -0.000000 -0.000000 
					CHANNELS 3 Zrotation Yrotation Xrotation
					JOINT LeftHand
					{
						OFFSET 3.483560 -0.000000 -0.000000 
						CHANNELS 3 Zrotation Yrotation Xrotation
						JOINT LeftHandIndex1
						{
							OFFSET 0.715260 -0.000000 -0.000000 
							CHANNELS 3 Zrotation Yrotation Xrotation
							End Site
							{
								OFFSET 0.000000 0.000000 0.000000 
							}
						}
					}
				}
			}
			JOINT RightArm
			{
				OFFSET -3.136600 1.374050 -0.404650 
				CHANNELS 3 Zrotation Yrotation Xrotation
				JOINT RightForeArm
				{
					OFFSET -5.241900 -0.000000 -0.000000 
					CHANNELS 3 Zrotation Yrotation Xrotation
					JOINT RightHand
					{
						OFFSET -3.444170 -0.000000 -0.000000 
						CHANNELS 3 Zrotation Yrotation Xrotation
						JOINT RightHandIndex1
						{
							OFFSET -0.622530 -0.000000 -0.000000 
							CHANNELS 3 Zrotation Yrotation Xrotation
							End Site
							{
								OFFSET 0.000000 0.000000 0.000000 
							}
						}
					}
				}
			}
		}
	}
}
MOTION
Frames: 13
Frame Time: 0.041667
-10.394171 17.892499 5.689938 -61.846704 86.625669 -46.441714 -5.412563 -2.867627 -29.028988 0.758089 9.126127 26.001424 0.521429 -1.755912 0.217564 0.660400 -5.197600 -14.473000 9.861359 5.803956 -31.575383 -2.429909 -9.327298 27.972945 0.154338 -1.652243 -1.221423 -0.005400 -0.474000 1.302400 4.672015 1.007525 10.017537 4.655711 0.548323 1.472192 0.336970 -1.416901 35.527026 -1.701000 0.844300 17.987600 -104.358122 -19.622291 75.046973 19.255816 -32.188024 -4.541964 -0.352942 1.436445 -48.977942 -7.125000 0.000000 0.000000 97.291672 19.043391 61.872834 -19.415655 32.798517 -5.346552 -0.487143 -0.359346 -40.291770 7.125000 0.000000 0.000000 
-10.392072 17.891600 5.689538 -61.927425 86.619295 -46.506981 -5.297356 -3.058323 -28.927401 0.764745 9.133774 26.027501 0.540632 -1.865676 0.196403 0.539100 -4.704300 -13.067100 9.884108 5.766455 -31.623980 -2.438445 -9.339956 28.017884 0.152650 -1.639924 -1.221548 -0.002200 -0.303100 0.832700 4.699692 1.011668 10.027015 4.699183 0.550558 1.488809 0.374615 -1.421838 35.496673 -1.680100 0.842600 17.960200 -104.418414 -19.628484 74.946855 19.236932 -32.164703 -4.534764 -0.349891 1.434533 -48.880951 -7.125000 0.000000 0.000000 97.219897 19.066038 61.995509 -19.425364 32.810066 -5.351302 -0.487417 -0.359802 -40.439621 7.125000 0.000000 0.000000 
-10.389374 17.889401 5.689838 -61.637859 86.622063 -46.204679 -5.311779 -3.078117 -28.880495 0.767159 9.136381 26.042473 0.539264 -1.853677 0.122602 0.542400 -4.718700 -13.107900 9.860844 5.759669 -31.647439 -2.439395 -9.343230 28.026099 0.147308 -1.606564 -1.260324 -0.003900 -0.401100 1.102100 4.722658 1.032613 10.026833 4.752476 0.559736 1.503033 0.350639 -1.394716 35.563277 -1.684300 0.853900 18.005900 -104.484046 -19.610508 74.936247 19.234691 -32.159435 -4.532870 -0.346477 1.435465 -48.829346 -7.125000 0.000000 0.000000 97.147160 19.075599 62.042684 -19.443705 32.834251 -5.362224 -0.485872 -0.362247 -40.606146 7.125000 0.000000 0.000000 
-10.388074 17.890600 5.689338 -61.819375 86.608584 -46.386597 -5.244931 -3.205663 -28.875065 0.768819 9.141644 26.050172 0.532844 -1.818612 0.139041 0.502200 -4.542800 -12.609100 9.865036 5.814928 -31.627702 -2.442016 -9.346872 28.040735 0.153216 -1.652529 -1.366683 -0.006600 -0.525500 1.443900 4.693266 1.044037 10.007229 4.721637 0.565776 1.474526 0.299522 -1.382411 35.634806 -1.716500 0.867000 18.053700 -104.466788 -19.588116 74.927414 19.232778 -32.154647 -4.527479 -0.347422 1.437412 -48.819145 -7.125000 0.000000 0.000000 97.136475 19.040417 62.062782 -19.487995 32.888217 -5.385338 -0.484770 -0.365582 -40.766061 7.125000 0.000000 0.000000 
-10.386875 17.889001 5.691437 -61.218381 86.436769 -45.802194 -5.233542 -2.945403 -28.991113 0.773203 9.139895 26.048879 0.507927 -1.667293 0.190720 0.601600 -4.965000 -13.808800 9.972211 5.983480 -31.574452 -2.443839 -9.350011 28.049741 0.155337 -1.668489 -1.404154 -0.008800 -0.606900 1.667800 4.665837 1.154988 9.990499 4.648225 0.620414 1.433761 0.298824 -1.447133 35.648406 -1.738500 0.856300 18.045200 -104.378321 -19.553413 75.030625 19.244473 -32.172498 -4.535243 -0.351845 1.435889 -48.874815 -7.125000 0.000000 0.000000 97.244909 19.017958 61.859621 -19.455187 32.847503 -5.367333 -0.486171 -0.361275 -40.712853 7.125000 0.000000 0.000000 
-10.383776 17.886902 5.699433 -58.808944 86.184961 -43.412749 -5.300287 -2.461105 -29.077311 0.782430 9.127575 26.054436 0.487788 -1.541557 0.196164 0.724600 -5.439000 -15.164900 10.036116 6.272906 -31.500653 -2.440820 -9.353106 28.038050 0.155404 -1.666392 -1.331942 -0.008200 -0.584100 1.605000 4.630309 1.348929 10.001960 4.654548 0.707902 1.430186 0.378863 -1.548544 35.651137 -1.718200 0.833600 18.023500 -104.279367 -19.523838 75.164251 19.259012 -32.193817 -4.545621 -0.355045 1.434135 -48.909499 -7.125000 0.000000 0.000000 97.418239 19.027327 61.576629 -19.379837 32.758424 -5.328944 -0.486580 -0.352330 -40.531258 7.125000 0.000000 0.000000 
-10.381478 17.890400 5.702231 -56.854613 86.119236 -41.487508 -5.255908 -2.554105 -28.901688 0.787363 9.116622 26.061633 0.499513 -1.610017 0.158746 0.553200 -4.764600 -13.238500 9.960922 6.385360 -31.454402 -2.438584 -9.361307 28.037615 0.157956 -1.685859 -1.269972 -0.001500 -0.248500 0.682700 4.603411 1.412752 10.024717 4.727491 0.730820 1.426516 0.471260 -1.553115 35.694143 -1.658300 0.833500 18.044500 -104.295663 -19.525591 75.088142 19.230316 -32.154674 -4.526881 -0.354302 1.435731 -48.880350 -7.125000 0.000000 0.000000 97.444119 19.034877 61.630255 -19.381712 32.761172 -5.328810 -0.487887 -0.354167 -40.609224 7.125000 0.000000 0.000000 
-10.380478 17.891300 5.698533 -56.702927 86.131428 -41.346828 -5.156534 -2.820280 -28.741999 0.786681 9.113556 26.057667 0.501628 -1.620222 0.099076 0.437900 -4.246100 -11.770100 9.946764 6.329475 -31.463792 -2.439828 -9.366174 28.047983 0.153837 -1.658759 -1.251576 -0.000100 -0.064600 0.177400 4.593183 1.388288 10.039337 4.720206 0.718182 1.425630 0.447635 -1.485969 35.753640 -1.653600 0.855100 18.090500 -104.306897 -19.555560 75.040419 19.223706 -32.146985 -4.523076 -0.354373 1.436465 -48.932947 -7.125000 0.000000 0.000000 97.436284 19.059008 61.776475 -19.404085 32.783923 -5.336175 -0.491892 -0.357750 -40.781191 7.125000 0.000000 0.000000 
-10.379079 17.888501 5.695835 -56.775679 86.161021 -41.425356 -5.278059 -2.725311 -28.823434 0.783479 9.117527 26.060747 0.457510 -1.368891 0.049630 0.608000 -4.990900 -13.882600 9.925451 6.288613 -31.465574 -2.438796 -9.365325 28.044822 0.147097 -1.614588 -1.273809 -0.002500 -0.323900 0.889900 4.502890 1.389459 10.062642 4.651853 0.716654 1.431900 0.386285 -1.485595 35.796274 -1.699800 0.864700 18.129500 -104.195590 -19.615115 75.216791 19.257773 -32.196435 -4.545178 -0.357562 1.437134 -49.147260 -7.125000 0.000000 0.000000 97.517973 19.102861 61.781211 -19.402998 32.783807 -5.335883 -0.491826 -0.354798 -40.847498 7.125000 0.000000 0.000000 
-10.377180 17.888201 5.693136 -56.995324 86.212578 -41.728089 -5.409781 -2.623101 -28.851248 0.783143 9.125285 26.079574 0.423128 -1.180602 0.043098 0.763400 -5.579600 -15.569400 9.903043 6.213020 -31.383863 -2.437232 -9.369402 28.047267 0.141361 -1.583091 -1.336197 -0.008000 -0.579200 1.591700 4.455556 1.377672 10.110422 4.619785 0.710600 1.399835 0.424831 -1.509638 35.831139 -1.680900 0.858200 18.162100 -104.160596 -19.656588 75.328435 19.265375 -32.207256 -4.546773 -0.359420 1.440490 -49.291046 -7.125000 0.000000 0.000000 97.465359 19.120721 61.916382 -19.454231 32.853265 -5.367209 -0.487065 -0.357830 -41.042329 7.125000 0.000000 0.000000 
-10.374881 17.889101 5.691437 -57.498750 86.177935 -42.295773 -5.335357 -2.697216 -28.768678 0.786291 9.130533 26.090962 0.414122 -1.129658 0.070919 0.718500 -5.416800 -15.101200 9.969156 6.201484 -31.308163 -2.440210 -9.375440 28.065194 0.144403 -1.606982 -1.367585 -0.007600 -0.563600 1.548600 4.553171 1.341195 10.149086 4.663518 0.698062 1.392212 0.475779 -1.453961 35.836695 -1.624600 0.864500 18.172100 -104.260764 -19.660175 75.212146 19.243293 -32.173798 -4.528858 -0.356766 1.443980 -49.260008 -7.125000 0.000000 0.000000 97.309668 19.128124 62.170315 -19.494767 32.907569 -5.392558 -0.482732 -0.360322 -41.263382 7.125000 0.000000 0.000000 
-10.372482 17.888801 5.693236 -56.972734 86.134182 -41.721022 -5.321586 -2.700972 -28.790944 0.789156 9.132498 26.100898 0.411101 -1.114443 0.084017 0.677800 -5.264300 -14.663800 9.957251 6.287276 -31.346853 -2.443953 -9.379409 28.081085 0.147969 -1.627485 -1.342579 -0.008200 -0.584100 1.605100 4.609269 1.328025 10.121541 4.742511 0.690040 1.411638 0.469765 -1.394832 35.846499 -1.606400 0.876600 18.175200 -104.277351 -19.627952 75.080933 19.251570 -32.180968 -4.531968 -0.353998 1.444285 -49.197611 -7.125000 0.000000 0.000000 97.319407 19.138091 62.215402 -19.406916 32.799371 -5.347298 -0.483605 -0.354881 -41.161218 7.125000 0.000000 0.000000 
-10.370683 17.887701 5.695435 -56.156003 86.134538 -40.866862 -5.377147 -2.664749 -28.827709 0.791764 9.134892 26.117736 0.412488 -1.125956 0.071191 0.682800 -5.283100 -14.717700 9.901777 6.307483 -31.395406 -2.445608 -9.384145 28.092016 0.142406 -1.588009 -1.311628 -0.007600 -0.563300 1.548000 4.585163 1.351028 10.070684 4.781376 0.695976 1.384978 0.497285 -1.411210 35.893412 -1.586000 0.870800 18.192600 -104.208351 -19.565100 75.080488 19.282210 -32.219639 -4.549911 -0.352975 1.443624 -49.151754 -7.125000 0.000000 0.000000 97.369510 19.120055 62.182459 -19.335749 32.708281 -5.307856 -0.487556 -0.354363 -41.093773 7.125000 0.000000 0.000000 
